# xmcd CD database file
#
# Track frame offsets:
#	150
#	16492
#	28459
#	44551
#	58247
#	73082
#	88790
#	102014
#	117399
#	139105
#	152331
#	166104
#	185986
#
# Disc length: 2640 seconds
#
# Revision: 0
# Processed by: cddbd v1.5.1PL2 Copyright (c) Steve Scherf et al.
# Submitted via: CDex 1.51
#
DISCID=ba0a4e0d
DTITLE=Woodys, The - Teardrops and Diamonds
DYEAR=2004
DGENRE=Country
TTITLE0=Teardrops and Diamonds
TTITLE1=Hearts Don't Break
TTITLE2=Message From Michael
TTITLE3=Don't Blame Me
TTITLE4=Every Minute Counts
TTITLE5=Honey I'm Wrong
TTITLE6=Hello Heartache
TTITLE7=Echoes Of Love
TTITLE8=Down Here In Denver
TTITLE9=Sweeter Than Wine
TTITLE10=He's Back And I'm Blue
TTITLE11=I Know Who You Really Are
TTITLE12=Sweet Destiny
EXTD=YEAR: 2004
EXTT0=
EXTT1=
EXTT2=
EXTT3=
EXTT4=
EXTT5=
EXTT6=
EXTT7=
EXTT8=
EXTT9=
EXTT10=
EXTT11=
EXTT12=
PLAYORDER=
